
<svg version="1.0" xmlns="http://www.w3.org/2000/svg" width="6" height="30" viewBox="0 0 600.000000 300.000000">

<g transform="translate(0.000000,300.000000) scale(0.100000,-0.100000)"
fill="#000000" stroke="none">
<path d="M4445 2135 c-55 -8 -123 -14 -152 -14 -30 -1 -55 -6 -60 -13 -4 -7
-6 -112 -4 -233 l3 -220 -34 32 c-104 100 -304 93 -445 -15 -47 -35 -110 -134
-133 -209 -24 -78 -27 -221 -6 -299 19 -72 63 -150 115 -201 131 -132 352
-148 498 -37 l33 25 0 -40 c0 -31 5 -43 21 -51 25 -14 274 -9 288 5 6 6 5 49
-1 115 -8 86 -5 742 5 1100 2 76 11 72 -128 55z m-285 -688 c72 -48 97 -153
54 -227 -63 -109 -215 -107 -264 3 -38 82 -13 187 52 227 46 28 115 27 158 -3z"/>
<path d="M443 2105 c-11 -8 -11 -58 -1 -303 9 -234 9 -357 -2 -604 -11 -263
-11 -312 1 -323 11 -11 98 -14 434 -16 l420 -3 12 25 c20 42 49 268 36 287 -9
14 -24 16 -99 12 -49 -3 -160 -5 -246 -5 -189 0 -189 0 -191 101 l-2 69 230 0
230 0 8 75 c4 41 11 109 16 150 12 102 11 102 -119 90 -162 -14 -335 -13 -349
4 -17 20 -24 98 -12 130 l12 29 207 -8 c114 -4 225 -8 247 -9 l40 -1 -1 70
c-1 101 -13 200 -27 219 -11 15 -56 17 -421 19 -260 1 -414 -2 -423 -8z"/>
<path d="M3244 2075 c-63 -33 -87 -66 -92 -131 -5 -64 19 -111 76 -146 29 -18
51 -23 107 -23 84 0 127 22 156 77 47 91 7 191 -93 233 -53 22 -97 19 -154
-10z"/>
<path d="M2510 1994 c-6 -14 -10 -88 -10 -165 l0 -139 -26 0 c-59 0 -64 -11
-64 -129 0 -120 3 -127 60 -133 l35 -3 0 -220 c0 -237 3 -252 57 -302 82 -77
286 -80 435 -7 61 29 62 32 65 159 l3 90 -25 -1 c-14 -1 -55 -5 -91 -9 -43 -5
-73 -4 -87 4 -29 16 -42 70 -42 183 l0 97 108 3 107 3 7 130 c4 72 5 136 3
143 -3 8 -36 12 -116 12 l-112 0 7 129 c8 147 16 135 -89 146 -33 4 -91 13
-128 21 -88 18 -86 18 -97 -12z"/>
<path d="M1644 1730 c-51 -10 -117 -21 -147 -25 -31 -4 -61 -12 -66 -19 -5 -7
-3 -35 6 -76 11 -47 17 -158 22 -405 l6 -339 25 -7 c14 -4 77 -7 140 -8 173
-1 160 -25 160 288 0 254 0 258 23 278 55 50 123 58 162 19 32 -32 39 -97 33
-343 -4 -154 -2 -208 8 -221 10 -14 34 -18 146 -20 119 -3 137 -1 157 15 l23
19 -9 356 -8 356 -30 44 c-47 66 -126 102 -224 103 -67 0 -85 -4 -154 -37 -43
-21 -91 -47 -107 -58 l-28 -20 -6 23 c-3 12 -6 33 -6 48 0 23 -17 50 -29 48
-4 0 -47 -9 -97 -19z"/>
<path d="M3151 1705 c-5 -5 -5 -41 0 -80 4 -38 8 -224 8 -412 1 -262 4 -344
14 -350 19 -13 258 -16 290 -4 l27 11 0 312 c0 172 5 358 10 413 6 61 6 103 1
108 -13 13 -341 15 -350 2z"/>
<path d="M4680 1711 c-11 -8 -14 -45 -15 -203 0 -227 -10 -198 143 -415 126
-177 124 -173 109 -204 -18 -36 -79 -61 -165 -68 -61 -5 -77 -9 -80 -23 -4
-23 66 -200 86 -215 10 -9 50 -13 116 -12 141 1 205 11 225 36 178 224 359
485 434 623 31 58 36 76 41 167 9 136 -2 278 -24 305 -15 20 -22 20 -166 12
l-149 -9 0 -170 0 -170 -38 -77 c-21 -42 -47 -84 -58 -94 -18 -17 -20 -16 -43
5 -13 12 -40 54 -60 93 l-36 70 0 168 c0 93 -4 171 -8 174 -17 10 -297 17
-312 7z"/>
</g>
</svg>
